<svg xmlns="http://www.w3.org/2000/svg" xmlns:xlink="http://www.w3.org/1999/xlink" width="120" zoomAndPan="magnify" viewBox="0 0 90 30.000001" height="40" preserveAspectRatio="xMidYMid meet" version="1.0"><defs><g/><clipPath id="e563e41970"><path d="M 1.453125 6 L 14 6 L 14 21 L 1.453125 21 Z M 1.453125 6 " clip-rule="nonzero"/></clipPath><clipPath id="50bbd14179"><path d="M 49 6 L 54 6 L 54 21 L 49 21 Z M 49 6 " clip-rule="nonzero"/></clipPath><clipPath id="66a7d9febb"><path d="M 43.519531 12.691406 L 51.910156 4.664062 L 59.9375 13.058594 L 51.542969 21.085938 Z M 43.519531 12.691406 " clip-rule="nonzero"/></clipPath><clipPath id="a43a3579c2"><path d="M 43.519531 12.691406 L 51.910156 4.664062 L 59.9375 13.058594 L 51.542969 21.085938 Z M 43.519531 12.691406 " clip-rule="nonzero"/></clipPath></defs><g clip-path="url(#e563e41970)"><g fill="#ffff00" fill-opacity="1"><g transform="translate(-0.0582558, 20.661788)"><g><path d="M 1.890625 0 L 1.890625 -14.578125 L 8.109375 -14.578125 C 9.015625 -14.578125 9.773438 -14.4375 10.390625 -14.15625 C 11.015625 -13.875 11.484375 -13.472656 11.796875 -12.953125 C 12.117188 -12.429688 12.28125 -11.8125 12.28125 -11.09375 C 12.28125 -10.445312 12.125 -9.878906 11.8125 -9.390625 C 11.5 -8.898438 11.050781 -8.503906 10.46875 -8.203125 L 10.46875 -8 C 11.382812 -7.757812 12.09375 -7.320312 12.59375 -6.6875 C 13.09375 -6.0625 13.34375 -5.289062 13.34375 -4.375 C 13.34375 -2.976562 12.921875 -1.898438 12.078125 -1.140625 C 11.234375 -0.378906 9.988281 0 8.34375 0 Z M 7.515625 -8.765625 C 8.859375 -8.765625 9.53125 -9.367188 9.53125 -10.578125 C 9.53125 -11.191406 9.363281 -11.648438 9.03125 -11.953125 C 8.695312 -12.265625 8.191406 -12.421875 7.515625 -12.421875 L 4.78125 -12.421875 L 4.78125 -8.765625 Z M 8.046875 -2.28125 C 9.640625 -2.28125 10.4375 -3.003906 10.4375 -4.453125 C 10.4375 -5.898438 9.640625 -6.625 8.046875 -6.625 L 4.78125 -6.625 L 4.78125 -2.28125 Z M 8.046875 -2.28125 "/></g></g></g></g><g fill="#ffff00" fill-opacity="1"><g transform="translate(14.203628, 20.661788)"><g><path d="M 11.3125 -9.09375 L 11.3125 -14.578125 L 14.171875 -14.578125 L 14.171875 0 L 11.3125 0 L 11.3125 -6.640625 L 4.78125 -6.640625 L 4.78125 0 L 1.890625 0 L 1.890625 -14.578125 L 4.78125 -14.578125 L 4.78125 -9.09375 Z M 11.3125 -9.09375 "/></g></g></g><g fill="#ffff00" fill-opacity="1"><g transform="translate(30.290639, 20.661788)"><g/></g></g><g fill="#ffff00" fill-opacity="1"><g transform="translate(35.107771, 20.661788)"><g><path d="M 1.890625 0 L 1.890625 -14.578125 L 8.109375 -14.578125 C 9.015625 -14.578125 9.773438 -14.4375 10.390625 -14.15625 C 11.015625 -13.875 11.484375 -13.472656 11.796875 -12.953125 C 12.117188 -12.429688 12.28125 -11.8125 12.28125 -11.09375 C 12.28125 -10.445312 12.125 -9.878906 11.8125 -9.390625 C 11.5 -8.898438 11.050781 -8.503906 10.46875 -8.203125 L 10.46875 -8 C 11.382812 -7.757812 12.09375 -7.320312 12.59375 -6.6875 C 13.09375 -6.0625 13.34375 -5.289062 13.34375 -4.375 C 13.34375 -2.976562 12.921875 -1.898438 12.078125 -1.140625 C 11.234375 -0.378906 9.988281 0 8.34375 0 Z M 7.515625 -8.765625 C 8.859375 -8.765625 9.53125 -9.367188 9.53125 -10.578125 C 9.53125 -11.191406 9.363281 -11.648438 9.03125 -11.953125 C 8.695312 -12.265625 8.191406 -12.421875 7.515625 -12.421875 L 4.78125 -12.421875 L 4.78125 -8.765625 Z M 8.046875 -2.28125 C 9.640625 -2.28125 10.4375 -3.003906 10.4375 -4.453125 C 10.4375 -5.898438 9.640625 -6.625 8.046875 -6.625 L 4.78125 -6.625 L 4.78125 -2.28125 Z M 8.046875 -2.28125 "/></g></g></g><g fill="#ffff00" fill-opacity="1"><g transform="translate(49.369654, 20.661788)"><g/></g></g><g fill="#ffff00" fill-opacity="1"><g transform="translate(54.186786, 20.661788)"><g><path d="M 6.390625 0.203125 C 5.316406 0.203125 4.367188 -0.015625 3.546875 -0.453125 C 2.734375 -0.890625 2.101562 -1.535156 1.65625 -2.390625 C 1.207031 -3.242188 0.984375 -4.28125 0.984375 -5.5 C 0.984375 -6.707031 1.207031 -7.738281 1.65625 -8.59375 C 2.101562 -9.445312 2.734375 -10.09375 3.546875 -10.53125 C 4.367188 -10.976562 5.316406 -11.203125 6.390625 -11.203125 C 7.460938 -11.203125 8.40625 -10.976562 9.21875 -10.53125 C 10.039062 -10.09375 10.675781 -9.445312 11.125 -8.59375 C 11.582031 -7.738281 11.8125 -6.707031 11.8125 -5.5 C 11.8125 -4.28125 11.582031 -3.242188 11.125 -2.390625 C 10.675781 -1.535156 10.039062 -0.890625 9.21875 -0.453125 C 8.40625 -0.015625 7.460938 0.203125 6.390625 0.203125 Z M 6.390625 -2.140625 C 8.097656 -2.140625 8.953125 -3.257812 8.953125 -5.5 C 8.953125 -6.65625 8.734375 -7.503906 8.296875 -8.046875 C 7.859375 -8.585938 7.222656 -8.859375 6.390625 -8.859375 C 4.679688 -8.859375 3.828125 -7.738281 3.828125 -5.5 C 3.828125 -3.257812 4.679688 -2.140625 6.390625 -2.140625 Z M 6.390625 -2.140625 "/></g></g></g><g fill="#ffff00" fill-opacity="1"><g transform="translate(66.972614, 20.661788)"><g><path d="M 5.703125 4.671875 C 3.890625 4.671875 2.550781 4.40625 1.6875 3.875 C 0.820312 3.34375 0.390625 2.597656 0.390625 1.640625 C 0.390625 1.066406 0.570312 0.59375 0.9375 0.21875 C 1.3125 -0.144531 1.84375 -0.390625 2.53125 -0.515625 L 2.53125 -0.734375 C 2.15625 -0.953125 1.882812 -1.195312 1.71875 -1.46875 C 1.5625 -1.75 1.484375 -2.070312 1.484375 -2.4375 C 1.484375 -3.320312 2.054688 -3.921875 3.203125 -4.234375 L 3.203125 -4.4375 C 2.617188 -4.78125 2.175781 -5.203125 1.875 -5.703125 C 1.570312 -6.203125 1.421875 -6.804688 1.421875 -7.515625 C 1.421875 -8.242188 1.585938 -8.882812 1.921875 -9.4375 C 2.265625 -10 2.757812 -10.429688 3.40625 -10.734375 C 4.050781 -11.046875 4.828125 -11.203125 5.734375 -11.203125 C 6.648438 -11.203125 7.378906 -11.046875 7.921875 -10.734375 C 8.265625 -11.222656 8.460938 -11.789062 8.515625 -12.4375 L 8.71875 -12.5625 L 10.703125 -12.078125 C 10.648438 -11.546875 10.5 -11.101562 10.25 -10.75 C 10 -10.394531 9.617188 -10.078125 9.109375 -9.796875 L 9.109375 -9.578125 C 9.722656 -9.035156 10.03125 -8.273438 10.03125 -7.296875 C 10.03125 -6.617188 9.859375 -6.007812 9.515625 -5.46875 C 9.179688 -4.9375 8.6875 -4.515625 8.03125 -4.203125 C 7.382812 -3.890625 6.617188 -3.734375 5.734375 -3.734375 L 5.3125 -3.734375 C 5.050781 -3.753906 4.863281 -3.765625 4.75 -3.765625 C 4.5 -3.765625 4.300781 -3.691406 4.15625 -3.546875 C 4.019531 -3.410156 3.953125 -3.238281 3.953125 -3.03125 C 3.953125 -2.800781 4.039062 -2.617188 4.21875 -2.484375 C 4.40625 -2.359375 4.679688 -2.289062 5.046875 -2.28125 L 7.515625 -2.1875 C 9.941406 -2.113281 11.15625 -1.066406 11.15625 0.953125 C 11.15625 1.671875 10.972656 2.304688 10.609375 2.859375 C 10.253906 3.410156 9.671875 3.847656 8.859375 4.171875 C 8.046875 4.503906 6.992188 4.671875 5.703125 4.671875 Z M 5.734375 -5.65625 C 6.265625 -5.65625 6.675781 -5.8125 6.96875 -6.125 C 7.269531 -6.4375 7.421875 -6.882812 7.421875 -7.46875 C 7.421875 -8.050781 7.269531 -8.492188 6.96875 -8.796875 C 6.675781 -9.109375 6.265625 -9.265625 5.734375 -9.265625 C 5.191406 -9.265625 4.773438 -9.109375 4.484375 -8.796875 C 4.191406 -8.492188 4.046875 -8.050781 4.046875 -7.46875 C 4.046875 -6.882812 4.191406 -6.4375 4.484375 -6.125 C 4.773438 -5.8125 5.191406 -5.65625 5.734375 -5.65625 Z M 5.703125 2.65625 C 6.648438 2.65625 7.335938 2.519531 7.765625 2.25 C 8.191406 1.988281 8.40625 1.644531 8.40625 1.21875 C 8.40625 0.875 8.296875 0.617188 8.078125 0.453125 C 7.859375 0.296875 7.507812 0.210938 7.03125 0.203125 L 4.859375 0.09375 C 4.785156 0.09375 4.71875 0.0859375 4.65625 0.078125 C 4.59375 0.078125 4.53125 0.078125 4.46875 0.078125 C 4 0.078125 3.644531 0.175781 3.40625 0.375 C 3.164062 0.570312 3.046875 0.847656 3.046875 1.203125 C 3.046875 1.671875 3.265625 2.03125 3.703125 2.28125 C 4.148438 2.53125 4.816406 2.65625 5.703125 2.65625 Z M 5.703125 2.65625 "/></g></g></g><g fill="#ffff00" fill-opacity="1"><g transform="translate(78.412047, 20.661788)"><g><path d="M 5.140625 0.203125 C 4.390625 0.203125 3.703125 0.117188 3.078125 -0.046875 C 2.453125 -0.222656 1.914062 -0.46875 1.46875 -0.78125 C 1.03125 -1.09375 0.707031 -1.445312 0.5 -1.84375 L 2.03125 -3.5 L 2.25 -3.5 C 2.613281 -3.007812 3.039062 -2.640625 3.53125 -2.390625 C 4.03125 -2.148438 4.578125 -2.03125 5.171875 -2.03125 C 5.703125 -2.03125 6.101562 -2.125 6.375 -2.3125 C 6.65625 -2.507812 6.796875 -2.785156 6.796875 -3.140625 C 6.796875 -3.421875 6.695312 -3.65625 6.5 -3.84375 C 6.300781 -4.03125 5.984375 -4.175781 5.546875 -4.28125 L 4.09375 -4.640625 C 3 -4.898438 2.203125 -5.296875 1.703125 -5.828125 C 1.203125 -6.359375 0.953125 -7.039062 0.953125 -7.875 C 0.953125 -8.550781 1.125 -9.140625 1.46875 -9.640625 C 1.820312 -10.148438 2.316406 -10.535156 2.953125 -10.796875 C 3.585938 -11.066406 4.328125 -11.203125 5.171875 -11.203125 C 6.160156 -11.203125 6.976562 -11.054688 7.625 -10.765625 C 8.28125 -10.484375 8.789062 -10.101562 9.15625 -9.625 L 7.671875 -8.03125 L 7.484375 -8.03125 C 7.171875 -8.382812 6.820312 -8.640625 6.4375 -8.796875 C 6.0625 -8.953125 5.640625 -9.03125 5.171875 -9.03125 C 4.078125 -9.03125 3.53125 -8.691406 3.53125 -8.015625 C 3.53125 -7.734375 3.628906 -7.5 3.828125 -7.3125 C 4.035156 -7.132812 4.394531 -6.988281 4.90625 -6.875 L 6.265625 -6.578125 C 7.378906 -6.335938 8.191406 -5.953125 8.703125 -5.421875 C 9.222656 -4.898438 9.484375 -4.191406 9.484375 -3.296875 C 9.484375 -2.597656 9.3125 -1.984375 8.96875 -1.453125 C 8.625 -0.921875 8.125 -0.507812 7.46875 -0.21875 C 6.8125 0.0625 6.035156 0.203125 5.140625 0.203125 Z M 5.140625 0.203125 "/></g></g></g><g clip-path="url(#50bbd14179)"><g clip-path="url(#66a7d9febb)"><g clip-path="url(#a43a3579c2)"><path fill="#ffff00" d="M 53.378906 6.886719 L 53.34375 8.3125 L 50.390625 8.253906 L 50.425781 6.832031 C 50.429688 6.738281 50.46875 6.652344 50.535156 6.589844 C 50.605469 6.523438 50.691406 6.488281 50.785156 6.492188 L 53.039062 6.535156 C 53.132812 6.535156 53.21875 6.574219 53.28125 6.640625 C 53.347656 6.707031 53.382812 6.796875 53.378906 6.886719 Z M 53.113281 17.175781 L 52.53125 16.917969 L 52.742188 8.671875 L 53.332031 8.683594 Z M 52.078125 19.367188 L 51.082031 19.347656 L 50.222656 17.496094 L 50.921875 17.21875 L 51.535156 17.589844 C 51.589844 17.621094 51.660156 17.625 51.71875 17.59375 L 52.347656 17.246094 L 53.035156 17.550781 Z M 51.554688 20.359375 L 51.257812 19.722656 L 51.882812 19.734375 Z M 51.34375 8.644531 L 52.371094 8.664062 L 52.15625 16.925781 L 51.636719 17.214844 L 51.128906 16.90625 Z M 50.382812 8.628906 L 50.96875 8.640625 L 50.757812 16.882812 L 50.164062 17.121094 Z M 53.050781 6.160156 L 50.792969 6.117188 C 50.410156 6.113281 50.066406 6.441406 50.054688 6.824219 L 49.78125 17.394531 C 49.78125 17.421875 49.789062 17.449219 49.800781 17.480469 C 49.816406 17.511719 51.375 20.859375 51.375 20.859375 C 51.390625 20.890625 51.421875 20.957031 51.539062 20.964844 C 51.644531 20.972656 51.699219 20.882812 51.707031 20.867188 C 51.707031 20.867188 53.445312 17.574219 53.457031 17.546875 C 53.46875 17.519531 53.476562 17.488281 53.476562 17.464844 L 53.75 6.894531 C 53.757812 6.703125 53.6875 6.519531 53.554688 6.382812 C 53.421875 6.242188 53.242188 6.164062 53.050781 6.160156 " fill-opacity="1" fill-rule="nonzero"/></g></g></g></svg>